<?xml version="1.0" encoding="UTF-8" standalone="no"?>
<!-- Generator: Gravit.io -->
<svg xmlns="http://www.w3.org/2000/svg" xmlns:xlink="http://www.w3.org/1999/xlink" style="isolation:isolate" viewBox="335 148.6 1174 1033" width="1174pt" height="1033pt">
  <defs>
    <clipPath id="_clipPath_ScoDeb9yvro8BNudOQMS5geoYZHo6LwT">
      <rect width="1920" height="1280" />
    </clipPath>
    <style>
        @import url('https://fonts.googleapis.com/css2?family=Rubik:ital,wght@0,700');
    </style>
  </defs>
  <g clip-path="url(#_clipPath_ScoDeb9yvro8BNudOQMS5geoYZHo6LwT)">
    <g style="isolation:isolate">
      <g>
        <line x1="801" y1="356" x2="1122" y2="356" vector-effect="non-scaling-stroke" stroke-width="16" stroke="rgb(1,51,40)" stroke-linejoin="round" stroke-linecap="round" stroke-miterlimit="3" />
        <line x1="344" y1="546" x2="618" y2="546" vector-effect="non-scaling-stroke" stroke-width="16" stroke="rgb(1,51,40)" stroke-linejoin="round" stroke-linecap="round" stroke-miterlimit="3" />
        <line x1="1227" y1="470" x2="1501" y2="470" vector-effect="non-scaling-stroke" stroke-width="16" stroke="rgb(1,51,40)" stroke-linejoin="round" stroke-linecap="round" stroke-miterlimit="3" />
        <line x1="344" y1="736" x2="618" y2="736" vector-effect="non-scaling-stroke" stroke-width="16" stroke="rgb(1,51,40)" stroke-linejoin="round" stroke-linecap="round" stroke-miterlimit="3" />
        <line x1="1227" y1="660" x2="1501" y2="660" vector-effect="non-scaling-stroke" stroke-width="16" stroke="rgb(1,51,40)" stroke-linejoin="round" stroke-linecap="round" stroke-miterlimit="3" />
        <line x1="344" y1="849" x2="618" y2="849" vector-effect="non-scaling-stroke" stroke-width="16" stroke="rgb(1,51,40)" stroke-linejoin="round" stroke-linecap="round" stroke-miterlimit="3" />
        <line x1="1227" y1="924" x2="1501" y2="924" vector-effect="non-scaling-stroke" stroke-width="16" stroke="rgb(1,51,40)" stroke-linejoin="round" stroke-linecap="round" stroke-miterlimit="3" />
        <line x1="778" y1="377" x2="635" y2="509" vector-effect="non-scaling-stroke" stroke-width="8" stroke="rgb(1,51,40)" stroke-linejoin="round" stroke-linecap="round" stroke-miterlimit="3" />
        <path d=" M 638.764 480.506 L 624.215 518.955 L 663.704 507.524 Z " fill="rgb(1,51,40)" stroke="none" />
        <line x1="1136" y1="377" x2="1203" y2="447" vector-effect="non-scaling-stroke" stroke-width="8" stroke="rgb(1,51,40)" stroke-linejoin="round" stroke-linecap="round" stroke-miterlimit="3" />
        <path d=" M 1174.442 443.752 L 1213.149 457.603 L 1201.005 418.328 Z " fill="rgb(1,51,40)" stroke="none" />
        <line x1="389" y1="566" x2="389" y2="706" vector-effect="non-scaling-stroke" stroke-width="8" stroke="rgb(1,51,40)" stroke-linejoin="round" stroke-linecap="round" stroke-miterlimit="3" />
        <path d=" M 370.615 683.907 L 389 720.677 L 407.385 683.907 Z " fill="rgb(1,51,40)" stroke="none" />
        <line x1="1279" y1="490" x2="1279" y2="630" vector-effect="non-scaling-stroke" stroke-width="8" stroke="rgb(1,51,40)" stroke-linejoin="round" stroke-linecap="round" stroke-miterlimit="3" />
        <path d=" M 1260.615 607.907 L 1279 644.677 L 1297.385 607.907 Z " fill="rgb(1,51,40)" stroke="none" />
        <line x1="1356" y1="680" x2="1356" y2="894" vector-effect="non-scaling-stroke" stroke-width="8" stroke="rgb(1,51,40)" stroke-linejoin="round" stroke-linecap="round" stroke-miterlimit="3" />
        <path d=" M 1337.615 871.907 L 1356 908.677 L 1374.385 871.907 Z " fill="rgb(1,51,40)" stroke="none" />
        <line x1="466" y1="756" x2="466" y2="819" vector-effect="non-scaling-stroke" stroke-width="8" stroke="rgb(1,51,40)" stroke-linejoin="round" stroke-linecap="round" stroke-miterlimit="3" />
        <path d=" M 447.615 796.907 L 466 833.677 L 484.385 796.907 Z " fill="rgb(1,51,40)" stroke="none" />
        <line x1="466" y1="566" x2="466" y2="706" vector-effect="non-scaling-stroke" stroke-width="8" stroke="rgb(1,51,40)" stroke-linejoin="round" stroke-linecap="round" stroke-miterlimit="3" />
        <path d=" M 447.615 683.907 L 466 720.677 L 484.385 683.907 Z " fill="rgb(1,51,40)" stroke="none" />
        <line x1="1356" y1="490" x2="1356" y2="630" vector-effect="non-scaling-stroke" stroke-width="8" stroke="rgb(1,51,40)" stroke-linejoin="round" stroke-linecap="round" stroke-miterlimit="3" />
        <path d=" M 1337.615 607.907 L 1356 644.677 L 1374.385 607.907 Z " fill="rgb(1,51,40)" stroke="none" />
        <line x1="1433" y1="680" x2="1433" y2="894" vector-effect="non-scaling-stroke" stroke-width="8" stroke="rgb(1,51,40)" stroke-linejoin="round" stroke-linecap="round" stroke-miterlimit="3" />
        <path d=" M 1414.615 871.907 L 1433 908.677 L 1451.385 871.907 Z " fill="rgb(1,51,40)" stroke="none" />
        <line x1="543" y1="756" x2="543" y2="819" vector-effect="non-scaling-stroke" stroke-width="8" stroke="rgb(1,51,40)" stroke-linejoin="round" stroke-linecap="round" stroke-miterlimit="3" />
        <path d=" M 524.615 796.907 L 543 833.677 L 561.385 796.907 Z " fill="rgb(1,51,40)" stroke="none" />
        <line x1="808.194" y1="377" x2="634.806" y2="694" vector-effect="non-scaling-stroke" stroke-width="8" stroke="rgb(1,51,40)" stroke-linejoin="round" stroke-linecap="round" stroke-miterlimit="3" />
        <path d=" M 629.278 665.795 L 627.763 706.877 L 661.538 683.44 Z " fill="rgb(1,51,40)" stroke="none" />
        <line x1="1106.613" y1="377" x2="1203" y2="630" vector-effect="non-scaling-stroke" stroke-width="8" stroke="rgb(1,51,40)" stroke-linejoin="round" stroke-linecap="round" stroke-miterlimit="3" />
        <path d=" M 1177.955 615.9 L 1208.225 643.715 L 1212.315 602.81 Z " fill="rgb(1,51,40)" stroke="none" />
        <line x1="838" y1="377" x2="635" y2="812" vector-effect="non-scaling-stroke" stroke-width="8" stroke="rgb(1,51,40)" stroke-linejoin="round" stroke-linecap="round" stroke-miterlimit="3" />
        <path d=" M 627.683 784.205 L 628.793 825.3 L 661.003 799.755 Z " fill="rgb(1,51,40)" stroke="none" />
        <line x1="1076" y1="377" x2="1203" y2="889" vector-effect="non-scaling-stroke" stroke-width="8" stroke="rgb(1,51,40)" stroke-linejoin="round" stroke-linecap="round" stroke-miterlimit="3" />
        <path d=" M 1179.837 871.983 L 1206.534 903.245 L 1215.525 863.131 Z " fill="rgb(1,51,40)" stroke="none" />
      </g>
      <g clip-path="url(#_clipPath_cOtYaR4AWL3uhf9Tr6Gu6rtuPOEIsKZA)">
        <text transform="matrix(1,0,0,1,712,285.12)" style="font-family:'Rubik';font-weight:700;font-size:192px;font-style:normal;fill:#009b7c;stroke:none;">ICRM</text>
      </g>
      <defs>
        <clipPath id="_clipPath_cOtYaR4AWL3uhf9Tr6Gu6rtuPOEIsKZA">
          <rect x="0" y="0" width="491" height="227.52" transform="matrix(1,0,0,1,712,105.6)" />
        </clipPath>
      </defs>
      <g clip-path="url(#_clipPath_fJ2wocQJI22lAdGvH8F6Tq53yxTbYtlX)">
        <text transform="matrix(1,0,0,1,329.472,1064.605)" style="font-family:'Rubik';font-weight:700;font-size:83px;font-style:normal;fill:#009b7c;stroke:none;">International Committee for</text>
        <text transform="matrix(1,0,0,1,425.338,1162.96)" style="font-family:'Rubik';font-weight:700;font-size:83px;font-style:normal;fill:#009b7c;stroke:none;">Radionuclide Metrology</text>
      </g>
      <defs>
        <clipPath id="_clipPath_fJ2wocQJI22lAdGvH8F6Tq53yxTbYtlX">
          <rect x="0" y="0" width="1172" height="196.71" transform="matrix(1,0,0,1,329,987)" />
        </clipPath>
      </defs>
    </g>
  </g>
  <defs>
    <clipPath id="_clipPath_Sg4fcA7MgmolkESVhREUt1aLf8saTsie">
      <rect width="1920" height="1280" />
    </clipPath>
  </defs>
</svg>
